<svg width="21" height="22" viewBox="0 0 21 22" fill="none" xmlns="http://www.w3.org/2000/svg">
<g clip-path="url(#clip0_2_909)">
<path fill-rule="evenodd" clip-rule="evenodd" d="M14.2384 2.43635C14.8545 2.44384 15.4647 2.55625 16.0425 2.7687C16.4615 2.92928 16.8421 3.17527 17.1596 3.49084C17.4772 3.80641 17.7248 4.18456 17.8864 4.60095C18.1002 5.17514 18.2133 5.7815 18.2208 6.39368C18.2671 7.41185 18.2773 7.71708 18.2773 10.2945C18.2773 12.8719 18.2675 13.1771 18.2208 14.1952C18.2133 14.8074 18.1002 15.4138 17.8864 15.988C17.7248 16.4044 17.4772 16.7825 17.1596 17.0981C16.8421 17.4137 16.4615 17.6596 16.0425 17.8202C15.4647 18.0327 14.8545 18.1451 14.2384 18.1526C13.2143 18.1985 12.9071 18.2087 10.3129 18.2087C7.71875 18.2087 7.41159 18.199 6.38742 18.1526C5.77137 18.1451 5.16116 18.0327 4.58334 17.8202C4.16431 17.6596 3.78377 17.4137 3.4662 17.0981C3.14863 16.7825 2.90108 16.4044 2.73948 15.988C2.52569 15.4138 2.41257 14.8074 2.40503 14.1952C2.35877 13.1771 2.34859 12.8719 2.34859 10.2945C2.34859 7.71708 2.35831 7.41185 2.40503 6.39368C2.41257 5.7815 2.52569 5.17514 2.73948 4.60095C2.90108 4.18456 3.14863 3.80641 3.4662 3.49084C3.78377 3.17527 4.16431 2.92928 4.58334 2.7687C5.16116 2.55625 5.77137 2.44384 6.38742 2.43635C7.41205 2.39038 7.71921 2.38027 10.3129 2.38027C12.9066 2.38027 13.2138 2.38993 14.2384 2.43635ZM6.30786 0.698788C5.5016 0.714724 4.70389 0.866422 3.94868 1.14743C3.30082 1.38998 2.71403 1.77009 2.22925 2.26122C1.73456 2.74313 1.35172 3.32655 1.10748 3.97074C0.824689 4.7212 0.67203 5.51389 0.655993 6.31507C0.609735 7.34382 0.598633 7.67387 0.598633 10.294C0.598633 12.9141 0.609735 13.2442 0.656919 14.2739C0.672955 15.075 0.825614 15.8677 1.1084 16.6182C1.35237 17.2623 1.73489 17.8457 2.22925 18.3277C2.7143 18.819 3.30142 19.1991 3.9496 19.4415C4.70482 19.7225 5.50252 19.8742 6.30879 19.8901C7.34498 19.9361 7.67573 19.9481 10.3138 19.9481C12.952 19.9481 13.2827 19.937 14.3189 19.8901C15.1252 19.8742 15.9229 19.7225 16.6781 19.4415C17.3232 19.193 17.909 18.8135 18.3981 18.3272C18.8872 17.8409 19.2687 17.2585 19.5184 16.6173C19.8012 15.8668 19.9538 15.0741 19.9699 14.2729C20.0161 13.2442 20.0272 12.9141 20.0272 10.294C20.0272 7.67387 20.0161 7.34382 19.9689 6.31415C19.9529 5.51297 19.8002 4.72028 19.5174 3.96982C19.2735 3.32572 18.891 2.7423 18.3966 2.2603C17.9115 1.76905 17.3244 1.38894 16.6762 1.14651C15.921 0.865502 15.1233 0.713805 14.3171 0.697869C13.2818 0.651901 12.9497 0.640869 10.3129 0.640869C7.67619 0.640869 7.34405 0.651901 6.30786 0.698788Z" fill="#FD6003"/>
<path fill-rule="evenodd" clip-rule="evenodd" d="M7.53931 6.17258C6.71896 6.71728 6.07957 7.49147 5.702 8.39727C5.32443 9.30306 5.22564 10.2998 5.41812 11.2614C5.6106 12.2229 6.08571 13.1062 6.78337 13.7995C7.48103 14.4927 8.3699 14.9649 9.33758 15.1561C10.3053 15.3474 11.3083 15.2492 12.2198 14.874C13.1313 14.4989 13.9104 13.8635 14.4586 13.0483C15.0067 12.2331 15.2993 11.2747 15.2993 10.2943C15.2993 8.97956 14.7737 7.7187 13.8382 6.78906C12.9027 5.85942 11.6338 5.33716 10.3108 5.33716C9.32415 5.33716 8.35967 5.62789 7.53931 6.17258ZM8.5118 12.9697C7.97929 12.6161 7.56426 12.1136 7.31918 11.5256C7.07409 10.9377 7.00997 10.2907 7.13491 9.66653C7.25985 9.04235 7.56825 8.46901 8.02111 8.01901C8.47396 7.569 9.05094 7.26254 9.67907 7.13839C10.3072 7.01423 10.9583 7.07795 11.55 7.32149C12.1416 7.56504 12.6474 7.97746 13.0032 8.50661C13.359 9.03576 13.5489 9.65787 13.5489 10.2943C13.5489 11.1477 13.2077 11.9661 12.6005 12.5695C11.9932 13.173 11.1696 13.512 10.3108 13.512C9.67035 13.512 9.0443 13.3233 8.5118 12.9697Z" fill="#FD6003"/>
<path fill-rule="evenodd" clip-rule="evenodd" d="M15.4977 6.29942C14.8539 6.29942 14.332 5.7808 14.332 5.14104C14.332 4.50129 14.8539 3.98267 15.4977 3.98267C16.1416 3.98267 16.6635 4.50129 16.6635 5.14104C16.6635 5.7808 16.1416 6.29942 15.4977 6.29942Z" fill="#FD6003"/>
</g>
<defs>
<clipPath id="clip0_2_909">
<rect width="19.4286" height="20.5651" fill="white" transform="translate(0.598633 0.640869)"/>
</clipPath>
</defs>
</svg>
