<svg width="17" height="15" viewBox="0 0 17 15" fill="none" xmlns="http://www.w3.org/2000/svg">
<g clip-path="url(#clip0_2_901)">
<path d="M14.8454 2.77729C15.513 2.37923 16.0471 1.74895 16.2808 0.98599C15.6466 1.35089 14.9455 1.61626 14.1777 1.78213C13.5768 1.15185 12.7089 0.753784 11.7742 0.753784C9.97154 0.753784 8.50272 2.21336 8.50272 4.00467C8.50272 4.27005 8.5361 4.50225 8.60286 4.73446C5.89889 4.60177 3.46197 3.30805 1.82623 1.31771C1.55917 1.8153 1.39226 2.34605 1.39226 2.94316C1.39226 4.07101 1.95976 5.06618 2.86109 5.66328C2.32697 5.63011 1.82623 5.49742 1.35888 5.26522V5.29839C1.35888 6.89066 2.49388 8.21755 3.99609 8.5161C3.72903 8.58244 3.42859 8.61562 3.12814 8.61562C2.92785 8.61562 2.69417 8.58244 2.49388 8.54927C2.92785 9.84299 4.12962 10.805 5.56506 10.805C4.43006 11.6675 3.028 12.1982 1.49241 12.1982C1.22535 12.1982 0.958286 12.1982 0.724609 12.1651C2.19344 13.0939 3.89594 13.6246 5.76536 13.6246C11.8076 13.6246 15.1124 8.64879 15.1124 4.33639C15.1124 4.2037 15.1124 4.03784 15.1124 3.90515C15.7467 3.47391 16.3142 2.90998 16.7482 2.24654C16.1473 2.51192 15.513 2.67778 14.8454 2.77729Z" fill="#FD6003"/>
</g>
<defs>
<clipPath id="clip0_2_901">
<rect width="16.0236" height="13.7094" fill="white" transform="translate(0.724609 0.753784)"/>
</clipPath>
</defs>
</svg>
