<svg width="19" height="20" viewBox="0 0 19 20" fill="none" xmlns="http://www.w3.org/2000/svg">
<g clip-path="url(#clip0_2_919)">
<path fill-rule="evenodd" clip-rule="evenodd" d="M0.417969 9.87463C0.417969 13.9529 3.08949 17.4155 6.76768 18.6467C7.23229 18.7237 7.38717 18.4543 7.38717 18.185C7.38717 17.9542 7.38717 17.3771 7.38717 16.6076C4.79308 17.1847 4.25103 15.3764 4.25103 15.3764C3.82513 14.2991 3.20565 14.0298 3.20565 14.0298C2.35386 13.4527 3.28308 13.4527 3.28308 13.4527C4.21231 13.5297 4.71564 14.4146 4.71564 14.4146C5.52871 15.8381 6.88383 15.4149 7.42588 15.1841C7.50332 14.5685 7.73563 14.1837 8.00665 13.9529C5.95461 13.722 3.78641 12.9141 3.78641 9.37447C3.78641 8.37415 4.13487 7.52772 4.75436 6.91213C4.67692 6.68129 4.32846 5.75791 4.83179 4.4498C4.83179 4.4498 5.60615 4.21895 7.38717 5.41165C8.1228 5.21928 8.93588 5.10386 9.71023 5.10386C10.4846 5.10386 11.2977 5.21928 12.0333 5.41165C13.8143 4.21895 14.5887 4.4498 14.5887 4.4498C15.092 5.71944 14.7823 6.64282 14.6661 6.91213C15.2469 7.56619 15.634 8.37415 15.634 9.37447C15.634 12.9141 13.4659 13.6836 11.3751 13.9144C11.7236 14.1837 11.9946 14.7608 11.9946 15.6073C11.9946 16.8384 11.9946 17.8388 11.9946 18.1465C11.9946 18.3774 12.1494 18.6852 12.6528 18.6082C16.331 17.4155 19.0025 13.9529 19.0025 9.87463C19.0025 4.75759 14.8597 0.640869 9.71023 0.640869C4.56077 0.640869 0.417969 4.75759 0.417969 9.87463Z" fill="#FD6003"/>
</g>
<defs>
<clipPath id="clip0_2_919">
<rect width="18.5845" height="19.1932" fill="white" transform="translate(0.417969 0.640869)"/>
</clipPath>
</defs>
</svg>
