<svg width="25" height="19" viewBox="0 0 25 19" fill="none" xmlns="http://www.w3.org/2000/svg">
<g clip-path="url(#clip0_2_1731)">
<path fill-rule="evenodd" clip-rule="evenodd" d="M23.6806 8.05249C24.4093 8.05249 25 8.47782 25 9.00249V9.10249C25 9.62716 24.4093 10.0525 23.6806 10.0525H1.31944C0.590735 10.0525 0 9.62716 0 9.10249V9.00249C0 8.47782 0.590735 8.05249 1.31944 8.05249H23.6806Z" fill="#1B1C20"/>
<path fill-rule="evenodd" clip-rule="evenodd" d="M23.6806 15.5525C24.4093 15.5525 25 15.9778 25 16.5025V16.6025C25 17.1272 24.4093 17.5525 23.6806 17.5525H1.31944C0.590735 17.5525 0 17.1272 0 16.6025V16.5025C0 15.9778 0.590735 15.5525 1.31944 15.5525H23.6806Z" fill="#1B1C20"/>
<path fill-rule="evenodd" clip-rule="evenodd" d="M23.6806 0.55249C24.4093 0.55249 25 0.97782 25 1.50249V1.60249C25 2.12716 24.4093 2.55249 23.6806 2.55249H1.31944C0.590735 2.55249 0 2.12716 0 1.60249V1.50249C0 0.97782 0.590735 0.55249 1.31944 0.55249H23.6806Z" fill="#1B1C20"/>
</g>
<defs>
<clipPath id="clip0_2_1731">
<rect width="25" height="17.4695" fill="white" transform="translate(0 0.55249)"/>
</clipPath>
</defs>
</svg>
